<svg xmlns="http://www.w3.org/2000/svg" viewBox="0 0 56 56" fill="#9c93fc"><path d="M51.5 7h-12C37.019 7 35 9.019 35 11.5s2.019 4.5 4.5 4.5h1.086L33.5 23.086l-7.367-7.366A3.972 3.972 0 0 0 27 13.232a3.97 3.97 0 0 0-1.172-2.828c-1.27-1.271-3.358-1.509-4.863-.617a3.694 3.694 0 0 0-.087-.09c-1.511-1.512-4.146-1.512-5.657 0-.755.755-1.171 1.76-1.171 2.828a3.977 3.977 0 0 0 1.261 2.915 3.979 3.979 0 0 0-.554 2.034c0 1.069.417 2.073 1.172 2.828 1.511 1.512 4.146 1.511 5.656.001.051-.051.1-.103.148-.156l7.353 7.353L24 32.586l-6.293-6.293a.999.999 0 0 0-1.414 0l-16 16a.999.999 0 0 0 0 1.414l5 5a.997.997 0 0 0 1.414 0L17 38.414l6.293 6.293a.999.999 0 0 0 1.414 0L47 22.414V23.5c0 2.481 2.019 4.5 4.5 4.5s4.5-2.019 4.5-4.5v-12C56 9.019 53.981 7 51.5 7zM21.553 17.553a1 1 0 0 0-.934.641 1.98 1.98 0 0 1-.447.694c-.756.756-2.073.756-2.829 0-.378-.378-.586-.88-.586-1.414s.208-1.036.567-1.395c.019-.014.098-.076.115-.092a1 1 0 0 0-.231-1.661 1.99 1.99 0 0 1-.573-.389c-.377-.378-.585-.88-.585-1.414s.208-1.036.585-1.414c.756-.756 2.072-.757 2.829.001.153.152.28.339.387.569a1 1 0 0 0 .77.567.985.985 0 0 0 .895-.338l.069-.093c.756-.756 2.072-.756 2.828 0 .379.381.587.883.587 1.417s-.208 1.036-.587 1.415a1.912 1.912 0 0 1-.284.229 1.002 1.002 0 0 0-.137 1.529L34.586 27 33 28.586l-10.74-10.74a1 1 0 0 0-.707-.293zM54 23.5c0 1.379-1.122 2.5-2.5 2.5S49 24.879 49 23.5V20a1 1 0 0 0-1.707-.707L24 42.586l-6.293-6.293a.999.999 0 0 0-1.414 0L6 46.586 2.414 43 17 28.414l6.293 6.293a.999.999 0 0 0 1.414 0l5.793-5.793L31.586 30l-1.293 1.293 1.414 1.414 2-2 3-3 2-2-1.414-1.414L36 25.586 34.914 24.5l8.793-8.793A1 1 0 0 0 43 14h-3.5c-1.378 0-2.5-1.121-2.5-2.5S38.122 9 39.5 9h12c1.378 0 2.5 1.121 2.5 2.5v12zM4 22h2v2H4z"/><path d="M8 22h2v2H8zM12 22h2v2h-2zM41 32h2v2h-2zM45 32h2v2h-2zM49 32h2v2h-2z"/></svg>