<svg xmlns="http://www.w3.org/2000/svg" viewBox="0 0 512 512" fill="#9c93fc"><path d="M404.499 178.193v-28.662C404.499 67.079 337.419 0 254.967 0S105.435 67.079 105.435 149.531v28.662H72.42V512h367.16V178.193h-35.081zm-284.064-28.662C120.435 75.351 180.786 15 254.967 15s134.532 60.351 134.532 134.531v28.662h-21.333v-8.391h9.597v-15h-9.597v-5.271c0-1.043-.017-2.083-.045-3.119h9.642v-15h-11.054a112.42 112.42 0 0 0-1.686-8.392h12.74v-15h-17.48c-16.59-41.941-57.544-71.687-105.315-71.687-62.418 0-113.199 50.78-113.199 113.197v28.662h-21.334v-28.661zm232.731 0v28.662H156.769v-28.662c0-54.146 44.052-98.197 98.199-98.197 54.146 0 98.198 44.051 98.198 98.197zM424.58 497H87.42V193.193H424.58V497z"/><path d="M373.766 216.375h27.631v87.059h15V201.375h-42.631zM401.4 326.93h15v14.219h-15zM401.397 473.817h-44.94v15h59.94v-46.289h-15zM228.49 473.82h14.837v15H228.49zM110.603 382.864h-15v105.953h105.068v-15h-90.068zM95.6 350.42h15v11.817h-15zM110.603 216.375h41.849v-15H95.603v40.856h15zM166.67 201.37h14.22v15h-14.22zM255.997 266.566c-25.442 0-46.14 20.698-46.14 46.14 0 13.66 6.086 26.584 16.458 35.313v72.736c0 16.366 13.316 29.682 29.682 29.682s29.682-13.315 29.682-29.682v-72.736c10.372-8.729 16.457-21.652 16.457-35.313.001-25.441-20.697-46.14-46.139-46.14zm17.871 71.633l-3.189 2.24v80.315c0 8.096-6.586 14.682-14.682 14.682s-14.682-6.586-14.682-14.682V340.44l-3.188-2.24c-8.309-5.838-13.27-15.368-13.27-25.493 0-17.171 13.969-31.14 31.14-31.14 17.17 0 31.14 13.969 31.14 31.14 0 10.124-4.961 19.654-13.269 25.492z"/></svg>