<svg xmlns="http://www.w3.org/2000/svg" viewBox="0 0 512 512" fill="#9c93fc"><path d="M429.172 46.585V0H143.984L35.37 108.615v356.8h47.457V512H476.63V46.585h-47.458zM139.659 25.212v79.076H60.582l79.077-79.076zM50.14 450.645V119.058h104.288V14.769h259.975v435.875H50.14zm411.721 46.586H97.597v-31.817h331.575V61.354h32.688v435.877z"/><path d="M343.043 28.411V43.18h42.948v28.313h14.769V28.411zM385.989 91.599h14.769v15.082h-14.769zM385.991 389.837v32.397H322.1v14.769h78.66v-47.166zM278.538 422.233h20.106v14.769h-20.106zM288.591 214.823h73.954v14.769h-73.954zM105.659 214.823H256v14.769H105.659zM105.659 266.26h256.886v14.769H105.659zM105.659 317.696h256.886v14.769H105.659zM105.659 369.132h256.886v14.769H105.659zM258.229 109.143c7.76-6.753 12.679-16.687 12.679-27.757 0-20.292-16.509-36.801-36.801-36.801s-36.801 16.509-36.801 36.801c0 11.07 4.919 21.005 12.679 27.757-17.615 8.865-29.734 27.104-29.734 48.131v38.789h107.713v-38.789c0-21.028-12.121-39.267-29.735-48.131zm-24.122-49.789c10.488 0 19.283 7.37 21.491 17.201-17.781-.957-31.411-4.992-39.372-8.018 4.005-5.556 10.525-9.183 17.881-9.183zm19.69 31.897c-3.626 7.206-11.088 12.166-19.69 12.166-11.673 0-21.249-9.126-21.982-20.618 9.055 3.348 23.334 7.363 41.672 8.452zm19.397 90.042H195.02v-24.02c0-19.028 13.67-34.914 31.703-38.378v36.575h14.769v-36.575c18.033 3.464 31.703 19.351 31.703 38.378v24.02z"/></svg>