<svg xmlns="http://www.w3.org/2000/svg" viewBox="0 0 511.999 511.999" fill="#9c93fc"><path d="M397.308 283.368c-12.69-16.602-28.32-30.815-45.866-41.959l-24.224-36.748a114.525 114.525 0 0 0 23.355-24.407c10.653-15.083 17.313-33.243 22.08-50.96 3.776-14.033 6.214-29.009 4.014-43.517-.885-5.841-2.576-11.577-5.311-16.826-6.391-12.271-15.901-17.111-20.788-18.87-15.169-20.459-30.459-33.12-49.322-40.896-48.639-20.051-100.755-6.652-132.768 34.135-22.724 28.951-58.588 45.202-58.942 45.36l-15.529 6.914 15.657 6.621a310.636 310.636 0 0 0 33.048 11.844c0 .109-.003.219-.003.33 0 36.652 17.334 69.33 44.231 90.274l-24.159 36.65c-50.015 31.752-82.103 87.639-82.103 149.09v121.598h352.803V390.402c0-39.064-12.508-76.076-36.173-107.034zm-57.588-32.929l-54.922 62.066-18.708-32.727 52.955-60.706 20.675 31.367zm-68.893 67.357c-9.557.047-19.835.081-27.537.076l13.79-24.123 13.747 24.047zm-54.1-96.397c12.555 4.751 26.154 7.359 40.353 7.359 14.036 0 27.688-2.589 40.39-7.399l-40.389 46.301-40.354-46.261zm30.46 111.232c6.701 0 16.014-.029 28.936-.104v99.289l-19.044 18.459-19.044-18.459v-99.209c2.332.014 5.311.024 9.152.024zM130.213 94.437c13.698-8.009 34.282-22.142 49.873-42.006 27.823-35.448 73.172-47.067 115.536-29.603 16.794 6.924 30.508 18.62 44.467 37.92l1.598 2.306 2.808.579c.354.084 8.745 2.154 13.961 12.501 4.783 9.489 7.495 27.054-2.852 58.737-4.78-17.172-12.366-39.004-22.081-49.172l-4.263-4.442-5.14 3.383c-.214.141-21.809 14.165-58.181 21.6-30.859 6.308-78.543 8.924-135.726-11.803zm27.328 23.59c46.406 11.083 85.228 8.1 112.111 2.514 27.896-5.797 47.478-15.08 56.686-20.108 9.231 14.345 16.972 44.337 19.946 58.344-16.784 33.668-51.401 55.224-89.203 55.224-53.709 0-97.618-42.726-99.54-95.974zm37.575 101.045l52.954 60.706-18.708 32.726-54.92-62.066 20.674-31.366zm163.449 278.172V395.77h-14.756v101.474H170.351V395.77h-14.756v101.474h-60.16V390.402c0-52.917 25.964-101.332 67.124-131.122l60.72 68.618v110.166l33.8 32.762 33.8-32.762V327.899l60.693-68.589c41.145 29.843 67.152 78.354 67.152 131.091v106.842h-60.159z"/><path d="M376.279 299.611l-11.73 8.954c11.551 15.133 19.63 32.137 24.01 50.538l14.355-3.417c-4.861-20.424-13.823-39.29-26.635-56.075zM43.247 177.068h14.756v16.967H43.247zM4.083 291.804h14.756v16.968H4.083zM43.247 375.355h14.756v16.967H43.247zM10.63 472.098h14.756v16.967H10.63zM76.133 103.384h14.756v16.967H76.133zM10.63 45.885h14.756v16.967H10.63zM96.133 5.476h14.756v16.967H96.133zM455.964 177.068h14.756v16.967h-14.756zM493.16 291.804h14.756v16.968H493.16zM455.964 375.355h14.756v16.967h-14.756zM488.586 472.098h14.756v16.967h-14.756zM423.087 103.384h14.756v16.967h-14.756zM488.586 45.885h14.756v16.967h-14.756zM403.077 5.476h14.756v16.967h-14.756zM303.609 344.612h46.561v14.756h-46.561zM162.97 344.612h46.561v14.756H162.97z"/></svg>